{"title":"Lil Wayne Ft. Drake &amp; Future - Love Me (Explicit) 720p [Sbyk","uid":8319775,"size":82998449,"categoryP":"video","categoryS":"music_videos","magnet":"?xt=urn:btih:e63c67bded66dbeb50b73ddcfcf2dec8c276a6ed&amp;dn=Lil+Wayne+Ft.+Drake+%26amp%3B+Future+-+Love+Me+%28Explicit%29+720p+%5BSbyk&amp;tr=udp%3A%2F%2Ftracker.openbittorrent.com%3A80&amp;tr=udp%3A%2F%2Fopen.demonii.com%3A1337&amp;tr=udp%3A%2F%2Ftracker.coppersurfer.tk%3A6969&amp;tr=udp%3A%2F%2Fexodus.desync.com%3A6969","seeders":1,"leechers":0,"uploader":"Sbyky","files":-1,"time":1364649725,"description":"[IMG]http://www.shotpix.com/images/23597324986571200623.jpg[/IMG]\n\nGeneral\nComplete name                            : Lil Wayne Ft. Drake &amp; Future - Love Me (Explicit) 720p [Sbyky].mp4\nFormat                                   : MPEG-4\nFormat profile                           : Base Media / Version 2\nCodec ID                                 : mp42\nFile size                                : 79.2 MiB\nDuration                                 : 4mn 24s\nOverall bit rate mode                    : Variable\nOverall bit rate                         : 2 507 Kbps\nEncoded date                             : UTC 2013-02-13 05:10:26\nTagged date                              : UTC 2013-02-13 05:10:26\n\nVideo\nID                                       : 1\nFormat                                   : AVC\nFormat/Info                              : Advanced Video Codec\nFormat profile                           : &lt;a class=&quot;__cf_email__&quot; href=&quot;/cdn-cgi/l/email-protection&quot; data-cfemail=&quot;82caebe5eac2ceb1acb3&quot;&gt;[email&amp;#160;protected]&lt;/a&gt;&lt;script cf-hash='f9e31' type=&quot;text/javascript&quot;&gt;\n/* &lt;![CDATA[ */!function(){try{var t=&quot;currentScript&quot;in document?document.currentScript:function(){for(var t=document.getElementsByTagName(&quot;script&quot;),e=t.length;e--;)if(t[e].getAttribute(&quot;cf-hash&quot;))return t[e]}();if(t&amp;&amp;t.previousSibling){var e,r,n,i,c=t.previousSibling,a=c.getAttribute(&quot;data-cfemail&quot;);if(a){for(e=&quot;&quot;,r=parseInt(a.substr(0,2),16),n=2;a.length-n;n+=2)i=parseInt(a.substr(n,2),16)^r,e+=String.fromCharCode(i);e=document.createTextNode(e),c.parentNode.replaceChild(e,c)}}}catch(u){}}();/* ]]&gt; */&lt;/script&gt;\nFormat settings, CABAC                   : Yes\nFormat settings, ReFrames                : 1 frame\nCodec ID                                 : avc1\nCodec ID/Info                            : Advanced Video Coding\nDuration                                 : 4mn 24s\nBit rate                                 : 2 312 Kbps\nMaximum bit rate                         : 11.3 Mbps\nWidth                                    : 1 280 pixels\nHeight                                   : 720 pixels\nDisplay aspect ratio                     : 16:9\nFrame rate mode                          : Constant\nFrame rate                               : 23.976 fps\nColor space                              : YUV\nChroma subsampling                       : 4:2:0\nBit depth                                : 8 bits\nScan type                                : Progressive\nBits/(Pixel*Frame)                       : 0.105\nStream size                              : 73.0 MiB (92%)\nTagged date                              : UTC 2013-02-13 05:10:32\n\nAudio\nID                                       : 2\nFormat                                   : AAC\nFormat/Info                              : Advanced Audio Codec\nFormat profile                           : LC\nCodec ID                                 : 40\nDuration                                 : 4mn 24s\nBit rate mode                            : Variable\nBit rate                                 : 192 Kbps\nMaximum bit rate                         : 202 Kbps\nChannel(s)                               : 2 channels\nChannel positions                        : Front: L R\nSampling rate                            : 44.1 KHz\nCompression mode                         : Lossy\nStream size                              : 6.06 MiB (8%)\nTitle                                    : IsoMedia File Produced by Google, 5-11-2011\nEncoded date                             : UTC 2013-02-13 05:10:30\nTagged date                              : UTC 2013-02-13 05:10:32\n\nShared By Sbyky\n[IMG]http://www.shotpix.com/images/93673952718153918459.gif[/IMG]\n[IMG]http://www.shotpix.com/images/30389343628541615007.gif[/IMG]","torrent":{"xt":"urn:btih:e63c67bded66dbeb50b73ddcfcf2dec8c276a6ed","amp;dn":"Lil+Wayne+Ft.+Drake+%26amp%3B+Future+-+Love+Me+%28Explicit%29+720p+%5BSbyk","amp;tr":["udp%3A%2F%2Ftracker.openbittorrent.com%3A80","udp%3A%2F%2Fopen.demonii.com%3A1337","udp%3A%2F%2Ftracker.coppersurfer.tk%3A6969","udp%3A%2F%2Fexodus.desync.com%3A6969"],"infoHash":"e63c67bded66dbeb50b73ddcfcf2dec8c276a6ed","infoHashBuffer":{"type":"Buffer","data":[230,60,103,189,237,102,219,235,80,183,61,220,252,242,222,200,194,118,166,237]},"announce":[],"urlList":[]}}